<mxfile host="65bd71144e" modified="2021-01-31T07:02:26.182Z" agent="5.0 (Macintosh; Intel Mac OS X 11_0_0) AppleWebKit/537.36 (KHTML, like Gecko) Code/1.52.1 Chrome/83.0.4103.122 Electron/9.3.5 Safari/537.36" version="13.10.0" etag="sWfRAvbGFo5H-yzTGkDY" type="embed" pages="3">
    <diagram id="mQHO5hFe7luaKpXUr6Vf" name="Page-1">
        <mxGraphModel dx="552" dy="520" grid="1" gridSize="10" guides="1" tooltips="1" connect="1" arrows="1" fold="1" page="1" pageScale="1" pageWidth="850" pageHeight="1100" math="0" shadow="0">
            <root>
                <mxCell id="0"/>
                <mxCell id="1" parent="0"/>
                <mxCell id="2" value="user" style="shape=umlActor;verticalLabelPosition=bottom;verticalAlign=top;html=1;outlineConnect=0;" vertex="1" parent="1">
                    <mxGeometry x="120" y="320" width="30" height="60" as="geometry"/>
                </mxCell>
                <mxCell id="9" value="" style="whiteSpace=wrap;html=1;aspect=fixed;" vertex="1" parent="1">
                    <mxGeometry x="180" y="240" width="320" height="320" as="geometry"/>
                </mxCell>
                <mxCell id="16" value="Check Hospital in Thailand" style="text;html=1;strokeColor=none;fillColor=none;align=center;verticalAlign=middle;whiteSpace=wrap;rounded=0;" vertex="1" parent="1">
                    <mxGeometry x="260" y="250" width="160" height="20" as="geometry"/>
                </mxCell>
                <mxCell id="18" value="Search hospital in Thailand" style="ellipse;whiteSpace=wrap;html=1;" vertex="1" parent="1">
                    <mxGeometry x="280" y="290" width="120" height="50" as="geometry"/>
                </mxCell>
                <mxCell id="22" value="" style="endArrow=none;html=1;entryX=0;entryY=0.5;entryDx=0;entryDy=0;" edge="1" parent="1" target="18">
                    <mxGeometry width="50" height="50" relative="1" as="geometry">
                        <mxPoint x="170" y="360" as="sourcePoint"/>
                        <mxPoint x="260" y="310" as="targetPoint"/>
                    </mxGeometry>
                </mxCell>
                <mxCell id="23" value="View hospital in Thailand" style="ellipse;whiteSpace=wrap;html=1;" vertex="1" parent="1">
                    <mxGeometry x="280" y="390" width="120" height="50" as="geometry"/>
                </mxCell>
                <mxCell id="24" value="" style="endArrow=none;html=1;entryX=0;entryY=0.5;entryDx=0;entryDy=0;" edge="1" parent="1" target="23">
                    <mxGeometry width="50" height="50" relative="1" as="geometry">
                        <mxPoint x="160" y="370" as="sourcePoint"/>
                        <mxPoint x="290" y="325" as="targetPoint"/>
                    </mxGeometry>
                </mxCell>
            </root>
        </mxGraphModel>
    </diagram>
    <diagram id="Zjpw_VPqK6b2FwDupTwW" name="Page-2">
        <mxGraphModel dx="552" dy="520" grid="1" gridSize="10" guides="1" tooltips="1" connect="1" arrows="1" fold="1" page="1" pageScale="1" pageWidth="850" pageHeight="1100" math="0" shadow="0">
            <root>
                <mxCell id="nmgjyvEqeJbpccq40pCQ-0"/>
                <mxCell id="nmgjyvEqeJbpccq40pCQ-1" parent="nmgjyvEqeJbpccq40pCQ-0"/>
                <mxCell id="nmgjyvEqeJbpccq40pCQ-2" value="user" style="shape=umlActor;verticalLabelPosition=bottom;verticalAlign=top;html=1;outlineConnect=0;" vertex="1" parent="nmgjyvEqeJbpccq40pCQ-1">
                    <mxGeometry x="120" y="320" width="30" height="60" as="geometry"/>
                </mxCell>
                <mxCell id="nmgjyvEqeJbpccq40pCQ-3" value="" style="whiteSpace=wrap;html=1;aspect=fixed;" vertex="1" parent="nmgjyvEqeJbpccq40pCQ-1">
                    <mxGeometry x="180" y="240" width="320" height="320" as="geometry"/>
                </mxCell>
                <mxCell id="nmgjyvEqeJbpccq40pCQ-4" value="Adjust Hospital in Thailand" style="text;html=1;strokeColor=none;fillColor=none;align=center;verticalAlign=middle;whiteSpace=wrap;rounded=0;" vertex="1" parent="nmgjyvEqeJbpccq40pCQ-1">
                    <mxGeometry x="260" y="250" width="160" height="20" as="geometry"/>
                </mxCell>
                <mxCell id="nmgjyvEqeJbpccq40pCQ-5" value="Add hospital in Thailand" style="ellipse;whiteSpace=wrap;html=1;" vertex="1" parent="nmgjyvEqeJbpccq40pCQ-1">
                    <mxGeometry x="280" y="290" width="120" height="50" as="geometry"/>
                </mxCell>
                <mxCell id="nmgjyvEqeJbpccq40pCQ-6" value="" style="endArrow=none;html=1;entryX=0;entryY=0.5;entryDx=0;entryDy=0;" edge="1" parent="nmgjyvEqeJbpccq40pCQ-1" target="nmgjyvEqeJbpccq40pCQ-5">
                    <mxGeometry width="50" height="50" relative="1" as="geometry">
                        <mxPoint x="170" y="350" as="sourcePoint"/>
                        <mxPoint x="260" y="310" as="targetPoint"/>
                    </mxGeometry>
                </mxCell>
                <mxCell id="nmgjyvEqeJbpccq40pCQ-7" value="View hospital in Thailand" style="ellipse;whiteSpace=wrap;html=1;" vertex="1" parent="nmgjyvEqeJbpccq40pCQ-1">
                    <mxGeometry x="280" y="400" width="120" height="50" as="geometry"/>
                </mxCell>
                <mxCell id="nmgjyvEqeJbpccq40pCQ-8" value="" style="endArrow=none;html=1;entryX=0;entryY=0.5;entryDx=0;entryDy=0;" edge="1" parent="nmgjyvEqeJbpccq40pCQ-1" target="nmgjyvEqeJbpccq40pCQ-7">
                    <mxGeometry width="50" height="50" relative="1" as="geometry">
                        <mxPoint x="160" y="380" as="sourcePoint"/>
                        <mxPoint x="290" y="325" as="targetPoint"/>
                    </mxGeometry>
                </mxCell>
            </root>
        </mxGraphModel>
    </diagram>
    <diagram id="92ViC_P4Wk54DY0isgrY" name="Page-3">
        <mxGraphModel dx="552" dy="520" grid="1" gridSize="10" guides="1" tooltips="1" connect="1" arrows="1" fold="1" page="1" pageScale="1" pageWidth="850" pageHeight="1100" math="0" shadow="0">
            <root>
                <mxCell id="_HIUuMrfiUb4zWHhDBcE-0"/>
                <mxCell id="_HIUuMrfiUb4zWHhDBcE-1" parent="_HIUuMrfiUb4zWHhDBcE-0"/>
                <mxCell id="f1BIbOrDtSlxzN4Vrnzn-0" value="user" style="shape=umlActor;verticalLabelPosition=bottom;verticalAlign=top;html=1;outlineConnect=0;" vertex="1" parent="_HIUuMrfiUb4zWHhDBcE-1">
                    <mxGeometry x="120" y="320" width="30" height="60" as="geometry"/>
                </mxCell>
                <mxCell id="f1BIbOrDtSlxzN4Vrnzn-1" value="" style="whiteSpace=wrap;html=1;aspect=fixed;" vertex="1" parent="_HIUuMrfiUb4zWHhDBcE-1">
                    <mxGeometry x="180" y="240" width="320" height="320" as="geometry"/>
                </mxCell>
                <mxCell id="f1BIbOrDtSlxzN4Vrnzn-2" value="Authentication System" style="text;html=1;strokeColor=none;fillColor=none;align=center;verticalAlign=middle;whiteSpace=wrap;rounded=0;" vertex="1" parent="_HIUuMrfiUb4zWHhDBcE-1">
                    <mxGeometry x="260" y="250" width="160" height="20" as="geometry"/>
                </mxCell>
                <mxCell id="f1BIbOrDtSlxzN4Vrnzn-3" value="edit password" style="ellipse;whiteSpace=wrap;html=1;" vertex="1" parent="_HIUuMrfiUb4zWHhDBcE-1">
                    <mxGeometry x="220" y="280" width="120" height="50" as="geometry"/>
                </mxCell>
                <mxCell id="f1BIbOrDtSlxzN4Vrnzn-4" value="" style="endArrow=none;html=1;entryX=0;entryY=0.5;entryDx=0;entryDy=0;" edge="1" parent="_HIUuMrfiUb4zWHhDBcE-1" target="f1BIbOrDtSlxzN4Vrnzn-3">
                    <mxGeometry width="50" height="50" relative="1" as="geometry">
                        <mxPoint x="170" y="350" as="sourcePoint"/>
                        <mxPoint x="260" y="310" as="targetPoint"/>
                    </mxGeometry>
                </mxCell>
                <mxCell id="f1BIbOrDtSlxzN4Vrnzn-5" value="" style="ellipse;whiteSpace=wrap;html=1;" vertex="1" parent="_HIUuMrfiUb4zWHhDBcE-1">
                    <mxGeometry x="280" y="440" width="120" height="50" as="geometry"/>
                </mxCell>
                <mxCell id="f1BIbOrDtSlxzN4Vrnzn-6" value="" style="endArrow=none;html=1;entryX=0;entryY=0.5;entryDx=0;entryDy=0;" edge="1" parent="_HIUuMrfiUb4zWHhDBcE-1" target="f1BIbOrDtSlxzN4Vrnzn-5">
                    <mxGeometry width="50" height="50" relative="1" as="geometry">
                        <mxPoint x="160" y="380" as="sourcePoint"/>
                        <mxPoint x="290" y="325" as="targetPoint"/>
                    </mxGeometry>
                </mxCell>
                <mxCell id="f1BIbOrDtSlxzN4Vrnzn-7" value="edit profile image" style="ellipse;whiteSpace=wrap;html=1;" vertex="1" parent="_HIUuMrfiUb4zWHhDBcE-1">
                    <mxGeometry x="320" y="350" width="120" height="50" as="geometry"/>
                </mxCell>
                <mxCell id="f1BIbOrDtSlxzN4Vrnzn-8" value="" style="endArrow=none;html=1;entryX=0;entryY=0.5;entryDx=0;entryDy=0;" edge="1" parent="_HIUuMrfiUb4zWHhDBcE-1" target="f1BIbOrDtSlxzN4Vrnzn-7">
                    <mxGeometry width="50" height="50" relative="1" as="geometry">
                        <mxPoint x="160" y="360" as="sourcePoint"/>
                        <mxPoint x="290" y="325" as="targetPoint"/>
                    </mxGeometry>
                </mxCell>
            </root>
        </mxGraphModel>
    </diagram>
</mxfile>